<svg xmlns="http://www.w3.org/2000/svg" width="35" height="35" viewBox="0 0 35 35">
  <g id="Group_135" data-name="Group 135" transform="translate(-24 -440)">
    <g id="Group_126" data-name="Group 126" transform="translate(29 445)">
      <g id="Group_130" data-name="Group 130">
        <path id="Path_2435" data-name="Path 2435" d="M11.647,0H13.3c.216.03.431.061.647.089A12.118,12.118,0,0,1,21.92,4.355a12.144,12.144,0,0,1,2.79,10.561,12.428,12.428,0,0,1-10.037,9.893c-.438.076-.88.129-1.321.192H11.6a.961.961,0,0,0-.162-.041,11.734,11.734,0,0,1-4.448-1.236,12.329,12.329,0,0,1-6.8-9.095C.1,14.151.063,13.665,0,13.184V11.816A1.9,1.9,0,0,0,.041,11.6,12.336,12.336,0,0,1,3.409,3.928,12.161,12.161,0,0,1,10.327.189c.437-.078.88-.127,1.32-.189m1.225,12.1h5.971a19.3,19.3,0,0,0-.915-5.651,20.783,20.783,0,0,1-5.057.713Zm-.795,0V7.193c-.856-.079-1.707-.125-2.548-.243s-1.668-.307-2.521-.468A19.028,19.028,0,0,0,6.121,12.1ZM7.021,18.517a20.6,20.6,0,0,1,5.051-.715V12.907H6.119a19.216,19.216,0,0,0,.9,5.61m11.811-5.609H12.876v4.9a20.583,20.583,0,0,1,5.055.708,19.223,19.223,0,0,0,.9-5.6M5.337,12.095a19.848,19.848,0,0,1,.942-5.813L3.49,5.041A11.568,11.568,0,0,0,.808,12.095ZM18.671,6.281a19.889,19.889,0,0,1,.944,5.815h4.524c.178-1.927-1.411-6.056-2.68-7.052L18.671,6.281M.8,12.9a11.492,11.492,0,0,0,2.66,7.028l2.809-1.252A19.857,19.857,0,0,1,5.336,12.9Zm18.817,0a19.927,19.927,0,0,1-.929,5.775L21.5,19.93c1.464-1.54,2.909-5.374,2.63-7.03Zm-1.937,6.355a19.266,19.266,0,0,0-4.8-.664v5.583c.046,0,.085,0,.124,0,.056-.006.112-.015.168-.026a3.971,3.971,0,0,0,1.546-.682,9.116,9.116,0,0,0,2.962-4.21m-5.612,4.928V18.589a19.192,19.192,0,0,0-4.785.667,10.958,10.958,0,0,0,1.558,2.851A5.809,5.809,0,0,0,10.793,23.8a3.357,3.357,0,0,0,1.274.384M12.074.814c-.108.014-.2.021-.3.041A4.442,4.442,0,0,0,9.608,2.046,9.564,9.564,0,0,0,7.453,5.318c-.053.123-.1.248-.159.388a19.2,19.2,0,0,0,4.78.659Zm5.583,4.893a11.154,11.154,0,0,0-1.535-2.8,5.476,5.476,0,0,0-2.3-1.858c-.3-.116-.612-.179-.935-.271V6.37a19.47,19.47,0,0,0,4.773-.663m.775,13.719a11.026,11.026,0,0,1-2.855,4.34,11.3,11.3,0,0,0,5.372-3.242l-2.517-1.1M4,20.528c1.081,1.341,4.168,3.184,5.361,3.222a10.917,10.917,0,0,1-2.837-4.323L4,20.528M20.951,4.435a11.534,11.534,0,0,0-5.345-3.2,11.18,11.18,0,0,1,2.807,4.3l2.539-1.1M4.04,4.4A13.027,13.027,0,0,0,6.561,5.486,11.089,11.089,0,0,1,9.34,1.234,11.519,11.519,0,0,0,4.04,4.4" fill="#a77f3e"/>
      </g>
    </g>
    <g id="Ellipse_5" data-name="Ellipse 5" transform="translate(24 440)" fill="none" stroke="#a77f3e" stroke-width="1">
      <circle cx="17.5" cy="17.5" r="17.5" stroke="none"/>
      <circle cx="17.5" cy="17.5" r="17" fill="none"/>
    </g>
  </g>
</svg>
