<svg xmlns="http://www.w3.org/2000/svg" width="35" height="35" viewBox="0 0 35 35">
  <g id="Group_137" data-name="Group 137" transform="translate(-24 -520)">
    <g id="Group_128" data-name="Group 128" transform="translate(33.361 528)">
      <g id="Group_129" data-name="Group 129" transform="translate(0.927)">
        <path id="Path_2457" data-name="Path 2457" d="M8.137,20a1.448,1.448,0,0,1-.8-.666q-2.427-3.7-4.864-7.393A9.374,9.374,0,0,1,1.03,8.456a6.719,6.719,0,0,1,.191-3.125A7.279,7.279,0,0,1,3.736,1.594,7.213,7.213,0,0,1,6.9.138C7.234.074,7.57.045,7.9,0h.779c.2.025.4.044.6.076a7.226,7.226,0,0,1,5.914,4.759,7.033,7.033,0,0,1-.371,5.852,13.094,13.094,0,0,1-.829,1.432c-1.575,2.409-3.164,4.809-4.743,7.216a1.448,1.448,0,0,1-.8.666Zm.159-.835c.073-.1.134-.17.186-.249.869-1.319,1.742-2.636,2.605-3.959.913-1.4,1.838-2.79,2.718-4.21a6.586,6.586,0,0,0,.957-2.9,6,6,0,0,0-1.092-4.1A6.341,6.341,0,0,0,7.382.944,6.044,6.044,0,0,0,4.52,2.089,6.427,6.427,0,0,0,2.11,5.383a5.9,5.9,0,0,0-.264,2.676,8.152,8.152,0,0,0,1.316,3.347q2.477,3.786,4.975,7.559c.041.063.093.118.158.2" transform="translate(-0.927)" fill="#a77f3e"/>
        <path id="Path_2459" data-name="Path 2459" d="M93.58,96.851a3.909,3.909,0,1,1,3.905-3.905,3.9,3.9,0,0,1-3.905,3.905m0-.866a3.042,3.042,0,1,0-3.029-3.053,3.05,3.05,0,0,0,3.029,3.053" transform="translate(-86.22 -85.555)" fill="#a77f3e"/>
      </g>
    </g>
    <g id="Group_136" data-name="Group 136" transform="translate(0 80)">
      <g id="Ellipse_5" data-name="Ellipse 5" transform="translate(24 440)" fill="none" stroke="#a77f3e" stroke-width="1">
        <circle cx="17.5" cy="17.5" r="17.5" stroke="none"/>
        <circle cx="17.5" cy="17.5" r="17" fill="none"/>
      </g>
    </g>
  </g>
</svg>
