<svg xmlns="http://www.w3.org/2000/svg" width="35" height="35" viewBox="0 0 35 35">
  <g id="Group_134" data-name="Group 134" transform="translate(-24 -360)">
    <g id="Ellipse_4" data-name="Ellipse 4" transform="translate(24 360)" fill="none" stroke="#a77f3e" stroke-width="1">
      <circle cx="17.5" cy="17.5" r="17.5" stroke="none"/>
      <circle cx="17.5" cy="17.5" r="17" fill="none"/>
    </g>
    <g id="Group_124" data-name="Group 124" transform="translate(32 370)">
      <g id="Group_131" data-name="Group 131">
        <path id="Path_2427" data-name="Path 2427" d="M0,13.516V1.484A5.186,5.186,0,0,1,.346.674,1.626,1.626,0,0,1,1.481,0h17a.412.412,0,0,0,.072.027A1.648,1.648,0,0,1,19.959,1.71q.007,5.79,0,11.579a1.688,1.688,0,0,1-.4,1.115,1.815,1.815,0,0,1-1.085.6h-17a2.069,2.069,0,0,1-.831-.35A1.813,1.813,0,0,1,0,13.516M1.5.856c.077.082.119.131.166.175Q5.491,4.525,9.314,8.017A.868.868,0,0,0,10.67,8l7.445-6.8c.109-.1.217-.2.367-.339ZM8.065,8.011l-6.61,6.1c.361.091,16.835.067,17.027-.024L11.9,8.011c-.246.222-.454.409-.66.6A1.692,1.692,0,0,1,8.719,8.6c-.206-.188-.414-.374-.655-.591M.888,1.446C.8,1.76.81,13.331.891,13.5L7.447,7.445l-6.559-6m11.626,6,6.592,6.092V1.415l-6.592,6.03" fill="#a77f3e"/>
      </g>
    </g>
  </g>
</svg>
