<svg xmlns="http://www.w3.org/2000/svg" width="35" height="35" viewBox="0 0 35 35">
  <g id="Group_133" data-name="Group 133" transform="translate(-24 -287)">
    <g id="Ellipse_3" data-name="Ellipse 3" transform="translate(24 287)" fill="none" stroke="#a77f3e" stroke-width="1">
      <circle cx="17.5" cy="17.5" r="17.5" stroke="none"/>
      <circle cx="17.5" cy="17.5" r="17" fill="none"/>
    </g>
    <g id="Group_122" data-name="Group 122" transform="translate(31.11 295)">
      <g id="Group_132" data-name="Group 132" transform="translate(0.89)">
        <path id="Path_2425" data-name="Path 2425" d="M15.786,20c-.28-.045-.562-.085-.84-.137a12.028,12.028,0,0,1-3.089-1.1A19.964,19.964,0,0,1,7.388,15.8,20.578,20.578,0,0,1,1.347,7.153,7.442,7.442,0,0,1,.892,4.5,3.211,3.211,0,0,1,1.8,2.256q.789-.811,1.6-1.6A2.435,2.435,0,0,1,4.634,0h.507A2.954,2.954,0,0,1,6.672.974c.771.792,1.568,1.559,2.32,2.369A1.825,1.825,0,0,1,9,5.905c-.477.531-1,1.026-1.5,1.528a.249.249,0,0,0-.07.343,11.651,11.651,0,0,0,2.065,2.846,14.238,14.238,0,0,0,2.747,2.324c.273.174.567.315.847.479a.16.16,0,0,0,.232-.036q.648-.662,1.308-1.313a2.446,2.446,0,0,1,.89-.616,1.831,1.831,0,0,1,2.008.461c.871.848,1.729,1.711,2.581,2.578a1.925,1.925,0,0,1,.124,2.826c-.587.676-1.232,1.3-1.881,1.921a2.816,2.816,0,0,1-1.653.717.874.874,0,0,0-.13.036ZM1.9,4.59A7.861,7.861,0,0,0,2.473,7.3a19.28,19.28,0,0,0,4.045,6.269,19.7,19.7,0,0,0,5.79,4.3,10.213,10.213,0,0,0,3.448,1.1,2.371,2.371,0,0,0,2-.534c.592-.565,1.16-1.157,1.714-1.76a.908.908,0,0,0-.015-1.362q-1.318-1.358-2.673-2.679a.868.868,0,0,0-1.2-.041,2.73,2.73,0,0,0-.259.236c-.484.482-.964.968-1.449,1.448a.828.828,0,0,1-1.066.165c-.289-.148-.579-.295-.856-.463a15.343,15.343,0,0,1-3.389-2.855,11.78,11.78,0,0,1-2.14-3.1.883.883,0,0,1,.22-1.175c.472-.457.942-.916,1.4-1.382a1,1,0,0,0,0-1.66Q6.869,2.621,5.687,1.444c-.064-.064-.132-.126-.2-.184a.885.885,0,0,0-1.116-.084,2.047,2.047,0,0,0-.346.283c-.454.448-.9.906-1.354,1.35A2.348,2.348,0,0,0,1.9,4.59" transform="translate(-0.89)" fill="#a77f3e"/>
      </g>
    </g>
  </g>
</svg>
