<svg id="Group_213" data-name="Group 213" xmlns="http://www.w3.org/2000/svg" xmlns:xlink="http://www.w3.org/1999/xlink" width="375" height="246" viewBox="0 0 375 246">
  <defs>
    <clipPath id="clip-path">
      <rect id="Rectangle_19" data-name="Rectangle 19" width="375" height="246" transform="translate(52.252 57.999)" fill="none"/>
    </clipPath>
    <linearGradient id="linear-gradient" x1="-0.154" y1="3.205" x2="-0.148" y2="3.205" gradientUnits="objectBoundingBox">
      <stop offset="0" stop-color="#fffbc3"/>
      <stop offset="0.004" stop-color="#fffbc3"/>
      <stop offset="0.188" stop-color="#ba9254"/>
      <stop offset="0.435" stop-color="#312313"/>
      <stop offset="0.682" stop-color="#fffbc3"/>
      <stop offset="1" stop-color="#ba9254"/>
    </linearGradient>
    <linearGradient id="linear-gradient-2" x1="-1.303" y1="3.627" x2="-1.297" y2="3.627" xlink:href="#linear-gradient"/>
    <linearGradient id="linear-gradient-3" x1="-2.505" y1="6.275" x2="-2.498" y2="6.275" xlink:href="#linear-gradient"/>
    <linearGradient id="linear-gradient-4" x1="-1.379" y1="5.759" x2="-1.372" y2="5.759" xlink:href="#linear-gradient"/>
    <linearGradient id="linear-gradient-5" x1="-0.001" y1="3.205" x2="0.004" y2="3.205" xlink:href="#linear-gradient"/>
    <linearGradient id="linear-gradient-6" x1="-0.158" y1="4.584" x2="-0.152" y2="4.584" xlink:href="#linear-gradient"/>
    <linearGradient id="linear-gradient-7" x1="-2.145" y1="5.638" x2="-2.139" y2="5.638" xlink:href="#linear-gradient"/>
    <linearGradient id="linear-gradient-8" x1="-0.174" y1="2.563" x2="-0.167" y2="2.563" xlink:href="#linear-gradient"/>
    <linearGradient id="linear-gradient-9" x1="-0.14" y1="1.966" x2="-0.135" y2="1.966" xlink:href="#linear-gradient"/>
    <linearGradient id="linear-gradient-10" x1="-0.14" y1="1.013" x2="-0.135" y2="1.013" xlink:href="#linear-gradient"/>
    <linearGradient id="linear-gradient-11" x1="-1.855" y1="1.026" x2="-1.846" y2="1.026" xlink:href="#linear-gradient"/>
    <linearGradient id="linear-gradient-12" x1="-2.33" y1="1.32" x2="-2.323" y2="1.32" xlink:href="#linear-gradient"/>
    <linearGradient id="linear-gradient-13" x1="-1.162" y1="2.872" x2="-1.156" y2="2.872" xlink:href="#linear-gradient"/>
    <linearGradient id="linear-gradient-14" x1="-3.102" y1="1.444" x2="-3.095" y2="1.444" xlink:href="#linear-gradient"/>
    <linearGradient id="linear-gradient-15" x1="-3.273" y1="1.32" x2="-3.265" y2="1.32" xlink:href="#linear-gradient"/>
    <linearGradient id="linear-gradient-16" x1="-6.3" y1="2.86" x2="-6.287" y2="2.86" xlink:href="#linear-gradient"/>
    <linearGradient id="linear-gradient-17" x1="-1.091" y1="3.477" x2="-1.085" y2="3.477" xlink:href="#linear-gradient"/>
    <linearGradient id="linear-gradient-18" x1="-0.187" y1="4.099" x2="-0.18" y2="4.099" xlink:href="#linear-gradient"/>
    <linearGradient id="linear-gradient-19" x1="-3.76" y1="5.046" x2="-3.753" y2="5.046" xlink:href="#linear-gradient"/>
    <linearGradient id="linear-gradient-20" x1="-3.327" y1="2.86" x2="-3.321" y2="2.86" xlink:href="#linear-gradient"/>
    <linearGradient id="linear-gradient-21" x1="-4.116" y1="2.236" x2="-4.11" y2="2.236" xlink:href="#linear-gradient"/>
    <linearGradient id="linear-gradient-22" x1="-3.754" y1="1.081" x2="-3.748" y2="1.081" xlink:href="#linear-gradient"/>
    <linearGradient id="linear-gradient-23" x1="-1.431" y1="2.385" x2="-1.425" y2="2.385" xlink:href="#linear-gradient"/>
    <linearGradient id="linear-gradient-24" x1="-4.255" y1="3.069" x2="-4.249" y2="3.069" xlink:href="#linear-gradient"/>
    <linearGradient id="linear-gradient-25" x1="-4.677" y1="2.514" x2="-4.671" y2="2.514" xlink:href="#linear-gradient"/>
    <linearGradient id="linear-gradient-26" x1="-3.043" y1="1.867" x2="-3.038" y2="1.867" xlink:href="#linear-gradient"/>
    <linearGradient id="linear-gradient-27" x1="-4.123" y1="1.002" x2="-4.117" y2="1.002" xlink:href="#linear-gradient"/>
    <linearGradient id="linear-gradient-28" x1="-5.426" y1="4.703" x2="-5.419" y2="4.703" xlink:href="#linear-gradient"/>
    <linearGradient id="linear-gradient-29" x1="-0.169" y1="2.565" x2="-0.163" y2="2.565" xlink:href="#linear-gradient"/>
    <linearGradient id="linear-gradient-30" x1="-3.496" y1="5.764" x2="-3.484" y2="5.764" xlink:href="#linear-gradient"/>
    <linearGradient id="linear-gradient-31" x1="-2.023" y1="4.012" x2="-2.019" y2="4.012" xlink:href="#linear-gradient"/>
    <linearGradient id="linear-gradient-32" x1="-6.371" y1="3.475" x2="-6.352" y2="3.475" xlink:href="#linear-gradient"/>
    <linearGradient id="linear-gradient-33" x1="-0.793" y1="3.78" x2="-0.788" y2="3.78" xlink:href="#linear-gradient"/>
    <linearGradient id="linear-gradient-34" x1="-0.889" y1="3.897" x2="-0.884" y2="3.897" xlink:href="#linear-gradient"/>
    <linearGradient id="linear-gradient-35" x1="-2.344" y1="2.424" x2="-2.339" y2="2.424" xlink:href="#linear-gradient"/>
    <linearGradient id="linear-gradient-36" x1="-4.543" y1="4.03" x2="-4.536" y2="4.03" xlink:href="#linear-gradient"/>
    <linearGradient id="linear-gradient-37" x1="-2.342" y1="4.407" x2="-2.336" y2="4.407" xlink:href="#linear-gradient"/>
    <linearGradient id="linear-gradient-38" x1="-3.515" y1="4.356" x2="-3.506" y2="4.356" xlink:href="#linear-gradient"/>
    <linearGradient id="linear-gradient-39" x1="-1.261" y1="4.663" x2="-1.255" y2="4.663" xlink:href="#linear-gradient"/>
    <linearGradient id="linear-gradient-40" x1="-1.32" y1="3.777" x2="-1.313" y2="3.777" xlink:href="#linear-gradient"/>
    <linearGradient id="linear-gradient-41" x1="-2.217" y1="4.053" x2="-2.211" y2="4.053" xlink:href="#linear-gradient"/>
    <linearGradient id="linear-gradient-42" x1="-3.269" y1="1.914" x2="-3.262" y2="1.914" xlink:href="#linear-gradient"/>
  </defs>
  <rect id="Rectangle_1" data-name="Rectangle 1" width="375" height="246" fill="#484848"/>
  <rect id="Rectangle_20" data-name="Rectangle 20" width="375" height="246" fill="#484848"/>
  <g id="Group_119" data-name="Group 119" transform="translate(-111.696 -137.11)" opacity="0.08">
    <g id="Group_118" data-name="Group 118" transform="translate(59.444 79.111)" clip-path="url(#clip-path)">
      <path id="Path_2381" data-name="Path 2381" d="M26.614,170.19l-.044-.333L137.5,155.1l3.106-110.913L26.864,170.416l-.25-.225-.044-.333.044.333-.25-.225L140.718,43.055a.336.336,0,0,1,.586.234L138.165,155.4l-.291.324-111.215,14.8a.336.336,0,0,1-.295-.558Z" transform="translate(-48.588 -67.272)" fill="url(#linear-gradient)"/>
      <path id="Path_2382" data-name="Path 2382" d="M290.157,89.935l.186.28-98.21,65.473a.336.336,0,0,1-.523-.289L194.75,43.288l.484-.293,95.071,46.638a.336.336,0,0,1,.038.582l-.186-.28-.148.3-94.6-46.408L192.3,154.768l97.669-65.113.186.28-.148.3Z" transform="translate(-102.706 -67.289)" fill="url(#linear-gradient-2)"/>
      <path id="Path_2383" data-name="Path 2383" d="M372.978,122.73l-.207.265L337.792,95.639l-.022-.511,26.907-25.113.175-.086,63.231-10.314a.337.337,0,0,1,.307.554l-55.159,62.782-.46.043.207-.265-.253-.222,54.54-62.078-62.2,10.147L338.517,95.351l34.669,27.113-.207.265-.253-.222Z" transform="translate(-150.548 -72.728)" fill="url(#linear-gradient-3)"/>
      <path id="Path_2384" data-name="Path 2384" d="M196.614,29.328l-.135-.309L262.4.318l.448.187L292,75.844a.337.337,0,0,1-.462.424L196.466,29.63a.337.337,0,0,1,.014-.611l.135.309.148-.3,94.3,46.26L262.348,1.075l-65.6,28.561-.134-.308.148-.3Z" transform="translate(-104.234 -53.32)" fill="url(#linear-gradient-4)"/>
      <path id="Path_2385" data-name="Path 2385" d="M18.105,170.191l-.334.047L.282,45.569l.328-.383,131.844-2.243a.336.336,0,0,1,.256.561L18.355,170.416a.336.336,0,0,1-.583-.178l.334-.047-.25-.225L131.691,43.629,1,45.853,18.438,170.144l-.333.046-.25-.225Z" transform="translate(-40.079 -67.273)" fill="url(#linear-gradient-5)"/>
      <path id="Path_2386" data-name="Path 2386" d="M137.83,209.947l.171.29L29.476,274.364l-.507-.271-2.691-49.329.291-.352,111.215-14.8a.336.336,0,0,1,.215.623l-.171-.29.044.334L26.967,225.038,29.611,273.5l108.048-63.846.171.289.044.334Z" transform="translate(-48.588 -121.827)" fill="url(#linear-gradient-6)"/>
      <path id="Path_2387" data-name="Path 2387" d="M389.947,122.511l.032-.335,69.32,6.709,51.5-69.264-65.544.443L390.2,122.733l-.253-.222.032-.335-.032.335-.253-.222,55.159-62.782.251-.114,66.371-.449a.336.336,0,0,1,.272.537l-52.02,69.958-.3.134-69.509-6.727a.336.336,0,0,1-.221-.556Z" transform="translate(-167.517 -72.51)" fill="url(#linear-gradient-7)"/>
      <path id="Path_2388" data-name="Path 2388" d="M26.614,379.722l.051-.332,99.8,15.525L29.614,306.021,26.95,379.734l-.336-.012.051-.332-.051.332-.336-.012,2.691-74.443a.336.336,0,0,1,.564-.235l98.21,90.138a.336.336,0,0,1-.279.58l-100.9-15.7-.285-.344Z" transform="translate(-48.588 -153.032)" fill="url(#linear-gradient-8)"/>
      <path id="Path_2389" data-name="Path 2389" d="M152.179,495.77l-.313.121-24.595-63.946L28.152,416.526l124.208,78.96-.181.284-.313.121.313-.121-.18.284L26.433,416.23a.336.336,0,0,1,.232-.616l100.9,15.7.262.212,24.665,64.128a.336.336,0,0,1-.494.4Z" transform="translate(-48.588 -189.257)" fill="url(#linear-gradient-9)"/>
      <path id="Path_2390" data-name="Path 2390" d="M89.845,571.558l-.312.127L26.3,416.074a.336.336,0,0,1,.492-.41L152.36,495.487l.079.5L90.105,571.772l-.572-.087.312-.127-.26-.214,62.093-75.494L27.322,416.8,90.157,571.431l-.311.127-.26-.214Z" transform="translate(-48.588 -189.257)" fill="url(#linear-gradient-10)"/>
      <path id="Path_2391" data-name="Path 2391" d="M282.384,601.446l-.248.227-69.061-75.339.174-.555,76.685-17.489.41.355-7.623,92.829a.336.336,0,0,1-.583.2l.248-.227-.335-.028,7.586-92.371-75.673,17.259,68.67,74.913-.248.227-.335-.028Z" transform="translate(-109.732 -219.593)" fill="url(#linear-gradient-11)"/>
      <path id="Path_2392" data-name="Path 2392" d="M419.212,559.68l-.238.237c-1.251-1.265-91.811-64.907-91.888-64.987a.336.336,0,0,1,.1-.6l93.726-28.7.435.328-1.794,93.725a.337.337,0,0,1-.574.231l.238-.237-.336-.007,1.785-93.261-93.283,28.564-.1-.322.194-.275c.024.02,90.536,63.637,91.976,65.062l-.238.238-.336-.007Z" transform="translate(-147.004 -205.631)" fill="url(#linear-gradient-12)"/>
      <path id="Path_2393" data-name="Path 2393" d="M176.614,437.535l-.018-.336,66.37-3.587.294.144,34.979,50.226a.336.336,0,0,1-.416.5L176.473,437.84a.336.336,0,0,1,.122-.642l.018.336.141-.306L276.981,483.35l-34.166-49.057-66.183,3.577-.018-.336.141-.306Z" transform="translate(-97.687 -195.149)" fill="url(#linear-gradient-13)"/>
      <path id="Path_2394" data-name="Path 2394" d="M559.443,551.6l-.229.247-92.828-85.653a.336.336,0,0,1,.274-.581l100.452,13.9.289.369-7.623,71.752a.336.336,0,0,1-.563.211l.229-.247-.335-.036,7.589-71.428-99.066-13.71,92.04,84.925-.228.248-.335-.036Z" transform="translate(-192.612 -205.623)" fill="url(#linear-gradient-14)"/>
      <path id="Path_2395" data-name="Path 2395" d="M463.947,559.672l-.029-.335,93.863-8.008L466.064,466.7l-1.78,92.977-.336-.006-.029-.335.029.335-.336-.007,1.794-93.725a.337.337,0,0,1,.564-.241L558.8,551.353a.336.336,0,0,1-.2.583l-94.623,8.072-.365-.342Z" transform="translate(-191.739 -205.623)" fill="url(#linear-gradient-15)"/>
      <path id="Path_2396" data-name="Path 2396" d="M535.01,197.851l-.287.174-41.706-68.613.017-.375,52.02-69.958a.336.336,0,0,1,.605.226l-10.314,138.57a.336.336,0,0,1-.623.149l.287-.174-.335-.025L544.9,60.41l-51.194,68.847L535.3,197.676l-.288.175-.335-.025Z" transform="translate(-201.365 -72.51)" fill="url(#linear-gradient-16)"/>
      <path id="Path_2397" data-name="Path 2397" d="M309.441,216.232l-.1.32L191.843,178.434a.337.337,0,0,1-.083-.6l98.21-65.473.517.219,19.284,103.591-.435.381.1-.32-.331.062L289.92,113.2l-97.208,64.805,116.833,37.9-.1.32-.331.062Z" transform="translate(-102.706 -89.995)" fill="url(#linear-gradient-17)"/>
      <path id="Path_2398" data-name="Path 2398" d="M30.614,274.075l.028-.335,88.514,7.6,19.437-70.68-107.808,63.7-.171-.289.028-.335-.028.335-.172-.29,108.524-64.128a.337.337,0,0,1,.5.379l-19.731,71.751-.353.246L30.585,274.41a.337.337,0,0,1-.143-.625Z" transform="translate(-49.897 -121.827)" fill="url(#linear-gradient-18)"/>
      <path id="Path_2399" data-name="Path 2399" d="M671.963,121.335l-.188.279L570.426,53.451a.337.337,0,0,1,.145-.613l96.865-12.557.379.315,4.485,80.721a.336.336,0,0,1-.523.3l.188-.279-.336.019-4.465-80.359-95.621,12.4,100.609,67.665-.188.279-.336.019Z" transform="translate(-226.654 -66.401)" fill="url(#linear-gradient-19)"/>
      <path id="Path_2400" data-name="Path 2400" d="M555.281,197.879l-.179-.285,111.226-70.131L565.887,59.91,555.616,197.9l-.336-.025-.179-.285.179.285-.335-.025L565.26,59.283l.523-.254,101.349,68.164-.008.564L555.46,198.163a.337.337,0,0,1-.515-.309Z" transform="translate(-221.635 -72.538)" fill="url(#linear-gradient-20)"/>
      <path id="Path_2401" data-name="Path 2401" d="M615.977,463.751l-.276-.192,32.737-47.087.519-.041,67.267,69.958a.336.336,0,0,1-.317.561l-100-22.871-.2-.52.276.192.075-.328,98.906,22.619-66.2-68.85-32.5,46.751-.276-.192.075-.328Z" transform="translate(-241.522 -189.525)" fill="url(#linear-gradient-21)"/>
      <path id="Path_2402" data-name="Path 2402" d="M604.615,558.369l.131-.31,71,29.92,36.015-78.255L612.533,487.03,604.949,558.4l-.334-.035.131-.31-.131.31-.334-.036,7.623-71.752.409-.292,100,22.871.231.468-36.324,78.927-.436.169-71.3-30.046-.2-.346Z" transform="translate(-237.784 -212.392)" fill="url(#linear-gradient-22)"/>
      <path id="Path_2403" data-name="Path 2403" d="M275.31,425.223l-.087-.324,66.37-17.938.268.04,62.334,39.464a.336.336,0,0,1-.081.605l-93.725,28.7-.375-.129-34.979-50.226.188-.517.087.324.276-.192,34.838,50.025,92.792-28.415-61.591-38.993-66.228,17.9-.088-.325.276-.192Z" transform="translate(-130.013 -186.426)" fill="url(#linear-gradient-23)"/>
      <path id="Path_2404" data-name="Path 2404" d="M793.53,204.642l-.235.241-72.2-70.407.051-.523,83.411-54.262.49.142,30.046,65.922-.031.333-41.257,58.746-.51.047.235-.241-.275-.193L834.4,145.86,804.6,80.469l-82.732,53.819,71.9,70.113-.235.241-.275-.193Z" transform="translate(-276.021 -79.301)" fill="url(#linear-gradient-24)"/>
      <path id="Path_2405" data-name="Path 2405" d="M736.661,307.462l-.189-.278,61.886-42.154.48.108,43.5,74.443-.112.455-45.294,28.252-.417-.048L736.423,307.7l.049-.515.189.278.239-.237,59.9,60.35,44.789-27.937-43.153-73.849L736.851,307.74l-.189-.278.239-.237Z" transform="translate(-281.038 -139.968)" fill="url(#linear-gradient-25)"/>
      <path id="Path_2406" data-name="Path 2406" d="M664.614,416.613l0-.336,108.524.9.3.2,37.67,82.963a.337.337,0,0,1-.365.471l-78.927-13.9-.184-.1-67.267-69.958a.336.336,0,0,1,.246-.57l0,.336.242-.233,67.191,69.879,78.19,13.772L772.92,417.844l-108.31-.895,0-.336.242-.233Z" transform="translate(-257.423 -189.475)" fill="url(#linear-gradient-26)"/>
      <path id="Path_2407" data-name="Path 2407" d="M710.629,599.543l.024-.336L825.1,607.254l.444-72.455L747.15,520.992l-36.216,78.691-.305-.141.024-.336-.024.336-.306-.141,36.324-78.927.364-.191,78.927,13.9.278.333-.448,73.1-.36.333-114.8-8.072-.282-.476Z" transform="translate(-272.495 -223.52)" fill="url(#linear-gradient-27)"/>
      <path id="Path_2408" data-name="Path 2408" d="M714.614,36.9l-.034-.335,74.443-7.623.347.211,13.453,34.082-.129.405-83.411,54.262-.519-.263-4.485-80.721.3-.353.034.335.336-.019,4.452,80.141,82.694-53.8L788.837,29.642l-74.189,7.6-.034-.335.336-.019Z" transform="translate(-273.79 -62.691)" fill="url(#linear-gradient-28)"/>
      <path id="Path_2409" data-name="Path 2409" d="M119.407,312.9l.248-.227,31.392,34.194.059.367L129.13,395.558l-.534.108L30.387,305.529a.336.336,0,0,1,.256-.583l88.793,7.623.219.108-.248.227-.029.335L31.569,305.7l97.141,89.157,21.69-47.7-31.241-34.03.248-.227-.029.335Z" transform="translate(-49.897 -153.033)" fill="url(#linear-gradient-29)"/>
      <path id="Path_2410" data-name="Path 2410" d="M350.67,50.84l-.225.25L295.434,1.8,323.9,75.367l26.544-24.774.229.246-.225.25.225-.25.229.246L323.993,76.2l-.543-.124L294.3.734a.336.336,0,0,1,.538-.372l56.056,50.226,0,.5Z" transform="translate(-136.312 -53.306)" fill="url(#linear-gradient-30)"/>
      <path id="Path_2411" data-name="Path 2411" d="M555.28,231.045l.068-.33,54.439,11.2,128.6-11.143L666.9,161.064,555.46,231.33l-.18-.285.068-.33-.068.33-.179-.285,111.664-70.407.414.044,72.2,70.407a.336.336,0,0,1-.206.576L609.8,242.591l-.1-.006-54.486-11.211a.336.336,0,0,1-.111-.613Z" transform="translate(-221.635 -105.704)" fill="url(#linear-gradient-31)"/>
      <path id="Path_2412" data-name="Path 2412" d="M357.231,216.2l-.33-.068,15.653-76.031L338.44,113.427l19.121,102.717-.33.061-.33-.068.33.068-.331.062L337.616,112.675a.337.337,0,0,1,.538-.327L373.133,139.7l.122.333-15.7,76.236a.336.336,0,0,1-.66-.006Z" transform="translate(-150.496 -89.967)" fill="url(#linear-gradient-32)"/>
      <path id="Path_2413" data-name="Path 2413" d="M194.048,334.441l-.182-.283L298,267.422,163.289,300.439,194.3,334.214l-.248.227-.182-.283.182.283-.248.228-31.392-34.194.167-.554L299.8,266.287a.336.336,0,0,1,.262.609L194.23,334.724l-.429-.055Z" transform="translate(-93.147 -140.376)" fill="url(#linear-gradient-33)"/>
      <path id="Path_2414" data-name="Path 2414" d="M309.369,394.246l-.079.327-110.5-26.729-21.628,47.562,65.78-3.556,66.337-17.929.087.325-.079.327.079-.327.087.324-66.37,17.938-.069.011-66.37,3.587-.324-.475,21.974-48.32.385-.188L309.449,393.92a.336.336,0,0,1,.008.651Z" transform="translate(-97.702 -173.386)" fill="url(#linear-gradient-34)"/>
      <path id="Path_2415" data-name="Path 2415" d="M466.614,435.424l-.189-.278,92.829-62.782.387.007,40.36,29.6.077.463-32.737,47.087-.322.141-100.452-13.9a.337.337,0,0,1-.143-.612l.189.278.046-.333,100.248,13.874,32.432-46.648-39.9-29.263L466.8,435.7l-.188-.279.046-.333Z" transform="translate(-192.612 -175.101)" fill="url(#linear-gradient-35)"/>
      <path id="Path_2416" data-name="Path 2416" d="M625.915,281.961l.318.111-21.074,60.339L692.5,312.857l-66.721-30.59.14-.306.318.111-.318-.111.141-.305L693.547,312.6a.337.337,0,0,1-.033.624l-88.793,30.046a.336.336,0,0,1-.425-.429l21.3-60.989.458-.2Z" transform="translate(-237.783 -145.41)" fill="url(#linear-gradient-36)"/>
      <path id="Path_2417" data-name="Path 2417" d="M389.947,153.28l.25-.225,53.748,59.57,56.491,15.447-41.179-67.747-69.342-6.711.032-.334.25-.225-.25.225.032-.335,69.509,6.727.255.16,41.706,68.613a.336.336,0,0,1-.376.5l-57.4-15.7-.161-.1L389.7,153.506a.336.336,0,0,1,.282-.56Z" transform="translate(-167.517 -103.279)" fill="url(#linear-gradient-37)"/>
      <path id="Path_2418" data-name="Path 2418" d="M366.618,229.516l-.079-.327L435.5,212.728,382.508,154l-15.562,75.585-.329-.068-.079-.327.079.327-.33-.068,15.7-76.236a.337.337,0,0,1,.579-.157L436.376,212.7l-.172.552L366.7,229.843l-.408-.395Z" transform="translate(-159.883 -103.279)" fill="url(#linear-gradient-38)"/>
      <path id="Path_2419" data-name="Path 2419" d="M320.047,385.9l-.268.2-33.055-43.775-75.952,16.793,109.355,26.453-.079.327-.268.2.268-.2-.079.327L209.2,359.431a.336.336,0,0,1,.007-.655l77.582-17.153.341.125L320.316,385.7a.337.337,0,0,1-.348.53Z" transform="translate(-108.38 -165.039)" fill="url(#linear-gradient-39)"/>
      <path id="Path_2420" data-name="Path 2420" d="M315.115,266.613l.293.164-28.252,50.674-.221.164-77.581,17.153a.336.336,0,0,1-.254-.611L314.933,266.33a.336.336,0,0,1,.475.447l-.293-.164.181.283L211.053,333.7l75.589-16.713,28.179-50.542.294.163.181.283Z" transform="translate(-108.38 -140.376)" fill="url(#linear-gradient-40)"/>
      <path id="Path_2421" data-name="Path 2421" d="M422.4,241.951l.336.021-4.148,67.267-.336.316H324.635l-.294-.5,28.252-50.674.216-.163,69.509-16.593.414.348-.336-.021.078.327-69.366,16.559-27.9,50.045h92.724l4.129-66.952.336.021.078.327Z" transform="translate(-146.152 -132.306)" fill="url(#linear-gradient-41)"/>
      <path id="Path_2422" data-name="Path 2422" d="M525.33,265.318l.216.258-61.425,51.468,1.888,82.633L558.09,337.4l-33.066-71.94.305-.141.216.258-.216-.258.306-.141,33.185,72.2-.118.419L465.874,400.58a.337.337,0,0,1-.525-.271L463.444,316.9l.12-.266,61.549-51.572.522.118Z" transform="translate(-191.685 -139.977)" fill="url(#linear-gradient-42)"/>
    </g>
  </g>
  <g id="Group_109" data-name="Group 109" transform="translate(140.611 -195.8)" opacity="0.5">
    <path id="Path_2341" data-name="Path 2341" d="M407.33,216.306l-5.458,4.907c-.537-.6-1.248-1.383-1.95-2.174a20.731,20.731,0,0,0-8.374-5.785,23.063,23.063,0,0,0-9.437-1.431,21.435,21.435,0,0,0-12.8,4.95,28.893,28.893,0,0,0-8.7,13.011,42.351,42.351,0,0,0-1.945,16.818,35.987,35.987,0,0,0,3.083,12.751A26.658,26.658,0,0,0,367.691,268a21.971,21.971,0,0,0,12.349,6.056,23.192,23.192,0,0,0,12.088-1.417,18.493,18.493,0,0,0,6.092-3.857c.964-.945,1.882-1.938,2.8-2.933a1.194,1.194,0,0,0,.307-.727q.02-9.529,0-19.059a1.35,1.35,0,0,0-.071-.252h-7.878v-5.56h17.506v1c0,7.6-.048,15.2.04,22.8a5.041,5.041,0,0,1-1.411,3.677,39.566,39.566,0,0,1-9.325,7.733,30.849,30.849,0,0,1-10.358,3.858,38.208,38.208,0,0,1-9.688.384,29.837,29.837,0,0,1-10.526-2.793,36.4,36.4,0,0,1-8.643-5.678,37.407,37.407,0,0,1-10.237-14.549,30.753,30.753,0,0,1-2.344-11.479c.006-2.418-.018-4.85.224-7.249a32.821,32.821,0,0,1,3.276-11.149,38.584,38.584,0,0,1,8.7-11.642A35.671,35.671,0,0,1,371,208.55a33.408,33.408,0,0,1,14.909-2.226,30.344,30.344,0,0,1,12.645,3.543,37.485,37.485,0,0,1,8.036,5.641C406.79,215.7,406.967,215.914,407.33,216.306Z" transform="translate(-187.087 -0.293)" fill="#a77f3e"/>
    <path id="Path_2342" data-name="Path 2342" d="M134.715,205.8c0,3.587.029,6.962-.035,10.335a2.282,2.282,0,0,1-.776,1.286c-2.041,2.039-4.128,4.032-6.181,6.058q-6.651,6.563-13.285,13.144-4.92,4.863-9.848,9.716-4.895,4.832-9.786,9.667T85,265.673q-5.019,4.948-10.044,9.889c-.988.97-2,1.919-3.017,2.857a1.218,1.218,0,0,1-.711.354c-3.4.02-6.807.011-10.21,0-.046,0-.092-.049-.342-.191.443-.382.862-.7,1.234-1.07,1.973-1.955,3.926-3.93,5.9-5.884q4.766-4.72,9.549-9.422,4.683-4.618,9.367-9.236,4.778-4.713,9.554-9.427,4.5-4.442,9.013-8.88,4.931-4.857,9.862-9.714,4.656-4.588,9.31-9.179,4.713-4.648,9.428-9.295C134.107,206.269,134.354,206.1,134.715,205.8Z" transform="translate(-1.477 0)" fill="#a77f3e"/>
    <path id="Path_2343" data-name="Path 2343" d="M296.75,279.323v-72.74h8.579v72.74Z" transform="translate(-153.773 -0.505)" fill="#a77f3e"/>
    <path id="Path_2344" data-name="Path 2344" d="M211.323,272.376v49.3h-8.275V291.413c-.448.417-.786.715-1.106,1.032q-5.257,5.194-10.511,10.39c-2,1.965-4.018,3.9-6.017,5.866-.3.29-.526.5-.909.12-1.781-1.78-3.575-3.548-5.279-5.236,1.232-1.294,2.371-2.54,3.563-3.732,2.041-2.04,4.11-4.053,6.18-6.064q4.016-3.9,8.052-7.786,3.811-3.687,7.622-7.375,3.112-3,6.251-5.965A3.73,3.73,0,0,1,211.323,272.376Z" transform="translate(-77.956 -42.95)" fill="#a77f3e"/>
    <path id="Path_2345" data-name="Path 2345" d="M94.469,238.866l-5.232,5.077L68.6,224.39V254.7H60.5V206.161c.742.661,1.441,1.24,2.091,1.871,2.376,2.307,4.73,4.636,7.1,6.947q3.979,3.877,7.975,7.737,4.024,3.893,8.057,7.776,3.994,3.861,7.983,7.727C93.929,238.432,94.177,238.619,94.469,238.866Z" transform="translate(-1.362 -0.233)" fill="#a77f3e"/>
    <path id="Path_2346" data-name="Path 2346" d="M149.364,456.408h-1.112v-5.651l-2.516,3.162-2.585-3.152v5.645h-1.07V449.04a1.379,1.379,0,0,1,1.756.648,28.359,28.359,0,0,0,1.887,2.472c.623-.816,1.223-1.579,1.8-2.36.66-.9.65-.9,1.843-.763Z" transform="translate(-53.992 -156.866)" fill="#a77f3e"/>
    <path id="Path_2347" data-name="Path 2347" d="M309.828,449.035V456.4h-.95v-5.48l-.177-.073-2.427,3.073-2.524-3.117v5.582H302.61v-7.364a1.436,1.436,0,0,1,1.753.612c.564.855,1.217,1.65,1.888,2.547a30.409,30.409,0,0,0,1.85-2.48A1.344,1.344,0,0,1,309.828,449.035Z" transform="translate(-157.553 -156.859)" fill="#a77f3e"/>
    <path id="Path_2348" data-name="Path 2348" d="M358.931,456.367a1.335,1.335,0,0,1-1.662-.629c-1.128-1.66-2.379-3.237-3.675-4.973v5.6h-1.159v-7.331a1.411,1.411,0,0,1,1.78.681c1.109,1.582,2.283,3.118,3.573,4.866v-5.566h1.143Z" transform="translate(-189.696 -156.855)" fill="#a77f3e"/>
    <path id="Path_2349" data-name="Path 2349" d="M413.848,451.024a5.167,5.167,0,0,1-1.215-.625,2.812,2.812,0,0,0-3.183-.555,2.635,2.635,0,0,0-1.39,2.662,2.567,2.567,0,0,0,3.955,2.232,1.981,1.981,0,0,0,1.016-1.71h-2.607v-.992h3.624v4.1l-.879.039-.148-.806c-1.718,1.086-3.421,1.262-5.028-.159a3.513,3.513,0,0,1-1.05-2.5,3.658,3.658,0,0,1,2.918-4.127C411.671,448.309,413.579,449.037,413.848,451.024Z" transform="translate(-224.851 -156.589)" fill="#a77f3e"/>
    <path id="Path_2350" data-name="Path 2350" d="M439.951,456.411a1.334,1.334,0,0,1-1.816-.788,10.915,10.915,0,0,0-1.029-1.636.9.9,0,0,0-.586-.333c-.588-.044-1.181-.016-1.85-.016v2.8H433.5v-7.381c1.542,0,3.091-.071,4.629.029a2.02,2.02,0,0,1,1.574,1.869c.1,1.321-.252,1.917-1.582,2.548Zm-5.27-3.735c1.049-.069,2.056-.072,3.041-.224a.968.968,0,0,0,.885-1.208,1.908,1.908,0,0,0-1.125-1.139,14.561,14.561,0,0,0-2.8-.053Z" transform="translate(-241.995 -156.913)" fill="#a77f3e"/>
    <path id="Path_2351" data-name="Path 2351" d="M61.958,452.161c.64-.842,1.3-1.606,1.836-2.452a1.333,1.333,0,0,1,1.679-.675v7.375l-.928.042V451l-.179-.079-2.4,2.993-2.575-3.209v5.682h-1v-7.348a1.376,1.376,0,0,1,1.733.676C60.68,450.56,61.334,451.34,61.958,452.161Z" transform="translate(0 -156.864)" fill="#a77f3e"/>
    <path id="Path_2352" data-name="Path 2352" d="M191.2,456.421h-1.033v-7.363a1.38,1.38,0,0,1,1.737.668c1.047,1.588,2.244,3.078,3.539,4.823v-5.516h1.069v7.342a1.167,1.167,0,0,1-1.509-.529c-1.182-1.707-2.447-3.357-3.8-5.2Z" transform="translate(-85.016 -156.879)" fill="#a77f3e"/>
    <path id="Path_2353" data-name="Path 2353" d="M459.769,456.184a3.821,3.821,0,0,1,.009-7.641,3.821,3.821,0,1,1-.009,7.641Zm0-1.041c1.747-.005,2.627-1.154,2.789-2.78a2.734,2.734,0,0,0-2.695-2.783A2.909,2.909,0,0,0,457,452.314,2.824,2.824,0,0,0,459.764,455.142Z" transform="translate(-256.485 -156.598)" fill="#a77f3e"/>
    <path id="Path_2354" data-name="Path 2354" d="M258.4,453.7h1.011a2.469,2.469,0,0,0,3.148,1.348c.4-.143.943-.637.948-.976s-.537-.8-.941-.979a14.129,14.129,0,0,0-2.176-.6c-1.446-.368-2-1.269-1.609-2.607a1.724,1.724,0,0,1,1.478-1.2,3.781,3.781,0,0,1,3.509.541,6.038,6.038,0,0,1,.894,1.445c-.826.337-1.176.132-1.5-.433-.47-.82-2.567-.946-3.205-.253a.827.827,0,0,0,.468,1.385c.718.237,1.461.4,2.2.586,1.43.357,2.109,1.029,2.077,2.071a2.247,2.247,0,0,1-1.957,2.1,8.214,8.214,0,0,1-2.2-.034A2.459,2.459,0,0,1,258.4,453.7Z" transform="translate(-129.03 -156.571)" fill="#a77f3e"/>
    <path id="Path_2355" data-name="Path 2355" d="M336.035,449.177v.955h-4.312v2.157h3.941v1.046h-3.932v2.192h4.3v1h-5.446v-7.352Z" transform="translate(-175.601 -157.009)" fill="#a77f3e"/>
    <path id="Path_2356" data-name="Path 2356" d="M243.346,452.288l-.048,1.054H239.42v2.167H243.8v1.015h-5.511v-7.388H243.8v.959h-4.389v2.194Z" transform="translate(-116.057 -156.981)" fill="#a77f3e"/>
    <path id="Path_2357" data-name="Path 2357" d="M509.633,453.946V456.5h-1.061v-7.336c1.516,0,3.035-.1,4.533.035.911.079,1.511,1.258,1.456,2.381a2.2,2.2,0,0,1-1.845,2.262,15.639,15.639,0,0,1-2.027.1C510.358,453.955,510.027,453.946,509.633,453.946Zm.067-3.829V452.9c.582,0,1.112,0,1.642,0a6.98,6.98,0,0,0,.929-.045c.832-.124,1.206-.687,1.119-1.675a1.076,1.076,0,0,0-1.252-1.063C511.35,450.123,510.56,450.117,509.7,450.117Z" transform="translate(-290.424 -156.981)" fill="#a77f3e"/>
    <path id="Path_2358" data-name="Path 2358" d="M83.549,456.314c.481-1.165.955-2.325,1.438-3.48.455-1.087.933-2.164,1.377-3.256a.948.948,0,0,1,1.025-.657c.558,0,.668.272.849.712.921,2.228,1.9,4.432,2.86,6.653-1.108.278-1.145.262-1.544-.692a3.6,3.6,0,0,0-.36-.851,1.316,1.316,0,0,0-.727-.483,8.928,8.928,0,0,0-1.443-.022c-1.448,0-1.521-.024-1.964,1.347C84.793,456.413,84.388,456.588,83.549,456.314Zm3.751-6.088-1.211,3h2.472Z" transform="translate(-16.231 -156.844)" fill="#a77f3e"/>
    <path id="Path_2359" data-name="Path 2359" d="M106.747,456.31l2.9-3.811-2.653-3.463c.815-.149,1.438-.2,1.9.565.4.665.912,1.259,1.443,1.976a19.294,19.294,0,0,0,1.311-1.733,1.59,1.59,0,0,1,2.046-.8c-.776,1.021-1.525,2.03-2.3,3.015a.563.563,0,0,0,.005.861c.874,1.082,1.684,2.215,2.574,3.4a1.4,1.4,0,0,1-1.806-.506c-.547-.812-1.17-1.573-1.793-2.4-.588.772-1.223,1.492-1.723,2.3A1.419,1.419,0,0,1,106.747,456.31Z" transform="translate(-31.197 -156.853)" fill="#a77f3e"/>
    <path id="Path_2360" data-name="Path 2360" d="M488.51,449.108h1.254c-.084,1.779-.076,3.554-.283,5.3a2.752,2.752,0,0,1-2.622,2.137c-1.679.083-2.841-.5-3.3-1.763a5.673,5.673,0,0,1-.324-1.712c-.045-1.246-.008-2.494,0-3.741a.97.97,0,0,1,.065-.211h.951c0,1.256-.038,2.5.013,3.735a2.518,2.518,0,0,0,.972,2.282,1.987,1.987,0,0,0,2.07.188,1.917,1.917,0,0,0,1.211-1.863C488.493,452.026,488.51,450.587,488.51,449.108Z" transform="translate(-274.065 -156.964)" fill="#a77f3e"/>
    <path id="Path_2361" data-name="Path 2361" d="M213.244,449.042c.9-.254,1.283.037,1.556.844.547,1.609,1.244,3.168,1.972,4.978.4-.922.717-1.639,1.011-2.368a25.737,25.737,0,0,0,1.015-2.666c.228-.815.668-1.037,1.51-.78-.523,1.336-1.051,2.694-1.587,4.049-.361.911-.7,1.832-1.124,2.714a1.438,1.438,0,0,1-.764.615c-.469.173-.691-.168-.852-.572C215.081,453.593,214.168,451.336,213.244,449.042Z" transform="translate(-99.901 -156.862)" fill="#a77f3e"/>
    <path id="Path_2362" data-name="Path 2362" d="M382.155,450.132h-2.55v6.408h-1.024v-6.382h-2.606v-1h6.179Z" transform="translate(-204.883 -156.998)" fill="#a77f3e"/>
    <path id="Path_2363" data-name="Path 2363" d="M282.553,450.12h-2.532v-.991h6.054v.973h-2.507v6.4h-1.016Z" transform="translate(-142.98 -156.978)" fill="#a77f3e"/>
    <path id="Path_2364" data-name="Path 2364" d="M132.751,456.532h-.919v-7.385h.919Z" transform="translate(-47.38 -156.989)" fill="#a77f3e"/>
    <path id="Path_2365" data-name="Path 2365" d="M180.526,456.556h-1.06v-7.369h1.06Z" transform="translate(-78.11 -157.015)" fill="#a77f3e"/>
  </g>
</svg>
